<?xml version="1.0" standalone="no"?>
<!DOCTYPE svg PUBLIC "-//W3C//DTD SVG 20010904//EN"
 "http://www.w3.org/TR/2001/REC-SVG-20010904/DTD/svg10.dtd">
<svg version="1.0" xmlns="http://www.w3.org/2000/svg"
 width="296.000000pt" height="296.000000pt" viewBox="0 0 296.000000 296.000000"
 preserveAspectRatio="xMidYMid meet">
<metadata>
Created by potrace 1.11, written by Peter Selinger 2001-2013
</metadata>
<g transform="translate(0.000000,296.000000) scale(0.100000,-0.100000)"
fill="#000000" stroke="none">
<path d="M176 2645 c-60 -21 -108 -65 -140 -128 l-28 -57 0 -984 0 -985 21
-45 c28 -57 71 -99 130 -127 l46 -22 1267 0 c1012 0 1276 3 1313 13 31 9 63
28 94 59 85 83 80 13 78 1126 -3 1100 3 1017 -78 1092 -82 77 17 72 -1399 72
-1048 0 -1272 -2 -1304 -14z"/>
</g>
</svg>
