<svg width="203" height="47" viewBox="0 0 203 47" fill="none" xmlns="http://www.w3.org/2000/svg">
<path d="M10.1797 31.3862C11.3984 31.4175 12.4141 31.0894 13.2266 30.4019C14.0391 29.6987 14.5703 28.769 14.8203 27.6128L21.0312 27.5894C20.9219 29.3706 20.3594 30.9722 19.3438 32.394C18.3438 33.8159 17 34.9253 15.3125 35.7222C13.6406 36.519 11.875 36.894 10.0156 36.8472C6.9375 36.8003 4.5 35.7378 2.70312 33.6597C0.90625 31.5815 0.0390625 28.8159 0.101562 25.3628L0.171875 24.0737L0.195312 23.8159C0.617188 19.6909 2.00781 16.4253 4.36719 14.019C6.72656 11.5972 9.64062 10.4331 13.1094 10.5269C15.9688 10.5894 18.2344 11.5269 19.9062 13.3394C21.5938 15.1362 22.4219 17.5112 22.3906 20.4644H16.2266C16.2266 19.105 15.9297 18.0347 15.3359 17.2534C14.7422 16.4722 13.8516 16.0503 12.6641 15.9878C9.50781 15.894 7.59375 18.1987 6.92188 22.9019C6.6875 24.605 6.60156 26.0425 6.66406 27.2144C6.82031 29.9487 7.99219 31.3394 10.1797 31.3862ZM33.6641 13.8081C35.6484 11.5894 37.9375 10.4956 40.5312 10.5269C43.0469 10.5894 44.8906 11.4956 46.0625 13.2456C47.25 14.98 47.6953 17.355 47.3984 20.3706L44.7266 36.355H38.1172L40.8125 20.3003C40.8906 19.6909 40.9062 19.1284 40.8594 18.6128C40.7031 16.9253 39.7188 16.0581 37.9062 16.0112C36.125 15.9487 34.5625 16.7144 33.2188 18.3081L30.0312 36.355H23.4219L29.6562 0.35498H36.2891L33.6641 13.8081ZM64.5547 36.355C64.3516 35.7144 64.2656 34.9487 64.2969 34.0581C62.3906 35.9644 60.2344 36.8862 57.8281 36.8237C55.6094 36.7925 53.7656 36.0737 52.2969 34.6675C50.8438 33.2456 50.1641 31.4956 50.2578 29.4175C50.3672 26.6519 51.5234 24.5347 53.7266 23.0659C55.9453 21.5815 58.9141 20.8394 62.6328 20.8394L65.7266 20.8862L66.0547 19.3628C66.1484 18.8472 66.1719 18.355 66.125 17.8862C66.0469 17.1519 65.7656 16.5815 65.2812 16.1753C64.8125 15.7534 64.1875 15.5347 63.4062 15.519C62.375 15.4878 61.5 15.7456 60.7812 16.2925C60.0625 16.8237 59.6016 17.5972 59.3984 18.6128L52.7656 18.6362C52.875 16.2144 53.9844 14.2534 56.0938 12.7534C58.2188 11.2378 60.8359 10.4956 63.9453 10.5269C66.8203 10.5894 69.0703 11.4487 70.6953 13.105C72.3203 14.7456 73 16.8628 72.7344 19.4565L70.7891 31.5972L70.6719 33.0972C70.6406 34.2065 70.7734 35.144 71.0703 35.9097L71.0469 36.355H64.5547ZM59.4688 31.6909C61.375 31.7534 63.0391 30.9253 64.4609 29.2065L65.2812 24.8237L62.9844 24.8003C60.5469 24.8628 58.7891 25.605 57.7109 27.0269C57.3203 27.5425 57.0781 28.1753 56.9844 28.9253C56.8594 29.769 57.0312 30.4409 57.5 30.9409C57.9844 31.4253 58.6406 31.6753 59.4688 31.6909ZM82.0859 36.355H75.4297L81.6875 0.35498H88.3203L82.0859 36.355ZM94.6953 36.355H88.0391L94.2969 0.35498H100.93L94.6953 36.355ZM112.367 36.8237C110.148 36.8081 108.18 36.269 106.461 35.2065C104.758 34.1284 103.484 32.6597 102.641 30.8003C101.797 28.9253 101.469 26.8628 101.656 24.6128L101.727 23.6753C101.961 21.2065 102.68 18.9409 103.883 16.8784C105.086 14.8159 106.633 13.23 108.523 12.1206C110.414 10.9956 112.508 10.4644 114.805 10.5269C118.07 10.5894 120.539 11.7925 122.211 14.1362C123.898 16.4644 124.539 19.4175 124.133 22.9956L123.758 25.8784H108.219C108.156 27.519 108.555 28.8315 109.414 29.8159C110.273 30.8003 111.445 31.3081 112.93 31.3394C115.336 31.4019 117.445 30.4722 119.258 28.5503L122.281 32.3003C121.328 33.7378 119.953 34.8628 118.156 35.6753C116.359 36.4722 114.43 36.855 112.367 36.8237ZM114.477 15.9878C113.258 15.9565 112.172 16.3394 111.219 17.1362C110.281 17.9331 109.438 19.3159 108.688 21.2847H117.781L117.922 20.6753C118.016 20.0503 118.023 19.4565 117.945 18.894C117.789 17.9878 117.406 17.2847 116.797 16.7847C116.188 16.269 115.414 16.0034 114.477 15.9878ZM136.18 10.9722L135.617 13.9722C137.648 11.6128 140.109 10.4644 143 10.5269C145.391 10.5737 147.156 11.4487 148.297 13.1519C149.438 14.855 149.852 17.2144 149.539 20.23L146.867 36.355H140.258L142.977 20.1597C143.055 19.5503 143.07 18.9956 143.023 18.4956C142.82 16.9019 141.82 16.0815 140.023 16.0347C138.289 15.9722 136.734 16.7769 135.359 18.4487L132.195 36.355H125.586L129.992 10.9956L136.18 10.9722ZM153.336 23.6519C153.805 19.73 155.078 16.5503 157.156 14.1128C159.25 11.6597 161.883 10.4565 165.055 10.5034C167.758 10.5659 169.773 11.5425 171.102 13.4331L171.969 10.9722L178.039 10.9956L173.891 35.4878C173.438 38.8628 172 41.5347 169.578 43.5034C167.156 45.4722 164.156 46.4253 160.578 46.3628C158.828 46.3315 157.156 45.9487 155.562 45.2144C153.969 44.4956 152.656 43.5034 151.625 42.2378L154.906 38.2065C156.375 40.0659 158.219 41.0269 160.438 41.0894C162.156 41.1519 163.625 40.6987 164.844 39.73C166.062 38.7769 166.891 37.4253 167.328 35.6753L167.703 34.1519C165.859 35.9956 163.789 36.8862 161.492 36.8237C159.023 36.7925 157.062 35.8784 155.609 34.0815C154.156 32.269 153.359 29.9175 153.219 27.0269C153.172 26.0737 153.211 24.9487 153.336 23.6519ZM159.828 26.4175C159.828 27.8862 160.133 29.0659 160.742 29.9565C161.367 30.8315 162.266 31.2925 163.438 31.3394C165.234 31.4019 166.828 30.6362 168.219 29.0425L170.188 18.3081C169.516 16.8394 168.273 16.0737 166.461 16.0112C164.773 15.9644 163.344 16.644 162.172 18.0503C161 19.4565 160.266 21.3237 159.969 23.6519C159.859 24.7925 159.812 25.7144 159.828 26.4175ZM190.93 36.8237C188.711 36.8081 186.742 36.269 185.023 35.2065C183.32 34.1284 182.047 32.6597 181.203 30.8003C180.359 28.9253 180.031 26.8628 180.219 24.6128L180.289 23.6753C180.523 21.2065 181.242 18.9409 182.445 16.8784C183.648 14.8159 185.195 13.23 187.086 12.1206C188.977 10.9956 191.07 10.4644 193.367 10.5269C196.633 10.5894 199.102 11.7925 200.773 14.1362C202.461 16.4644 203.102 19.4175 202.695 22.9956L202.32 25.8784H186.781C186.719 27.519 187.117 28.8315 187.977 29.8159C188.836 30.8003 190.008 31.3081 191.492 31.3394C193.898 31.4019 196.008 30.4722 197.82 28.5503L200.844 32.3003C199.891 33.7378 198.516 34.8628 196.719 35.6753C194.922 36.4722 192.992 36.855 190.93 36.8237ZM193.039 15.9878C191.82 15.9565 190.734 16.3394 189.781 17.1362C188.844 17.9331 188 19.3159 187.25 21.2847H196.344L196.484 20.6753C196.578 20.0503 196.586 19.4565 196.508 18.894C196.352 17.9878 195.969 17.2847 195.359 16.7847C194.75 16.269 193.977 16.0034 193.039 15.9878Z" fill="#4B6DB8"/>
</svg>
